<svg width="40" height="40" viewBox="0 0 40 40" fill="none" xmlns="http://www.w3.org/2000/svg">
<path d="M20.0007 19.1666C18.8956 19.1666 17.8358 18.7276 17.0544 17.9462C16.273 17.1648 15.834 16.105 15.834 14.9999C15.834 13.8948 16.273 12.835 17.0544 12.0536C17.8358 11.2722 18.8956 10.8333 20.0007 10.8333C21.1057 10.8333 22.1655 11.2722 22.9469 12.0536C23.7283 12.835 24.1673 13.8948 24.1673 14.9999C24.1673 15.5471 24.0595 16.0889 23.8502 16.5944C23.6408 17.1 23.3338 17.5593 22.9469 17.9462C22.56 18.3331 22.1007 18.64 21.5952 18.8494C21.0896 19.0588 20.5478 19.1666 20.0007 19.1666ZM20.0007 3.33325C16.9065 3.33325 13.939 4.56241 11.7511 6.75034C9.56315 8.93826 8.33398 11.9057 8.33398 14.9999C8.33398 23.7499 20.0007 36.6666 20.0007 36.6666C20.0007 36.6666 31.6673 23.7499 31.6673 14.9999C31.6673 11.9057 30.4382 8.93826 28.2502 6.75034C26.0623 4.56241 23.0948 3.33325 20.0007 3.33325Z" fill="#F8F8F8"/>
</svg>
