<svg width="40" height="40" viewBox="0 0 40 40" fill="none" xmlns="http://www.w3.org/2000/svg">
<path d="M33.334 10C34.3006 10 35.084 10.3334 35.7006 10.9834C36.334 11.6667 36.6673 12.4167 36.6673 13.3334V31.6667C36.6673 32.5834 36.334 33.3334 35.7006 34.0167C35.084 34.6667 34.3006 35 33.334 35H6.66732C5.70065 35 4.91732 34.6667 4.30065 34.0167C3.66732 33.3334 3.33398 32.5834 3.33398 31.6667V13.3334C3.33398 12.4167 3.66732 11.6667 4.30065 10.9834C4.91732 10.3334 5.70065 10 6.66732 10H13.334V6.66671C13.334 5.70004 13.6673 4.91671 14.3007 4.30004C14.9173 3.66671 15.7007 3.33337 16.6673 3.33337H23.334C24.3006 3.33337 25.084 3.66671 25.7007 4.30004C26.334 4.91671 26.6673 5.70004 26.6673 6.66671V10H33.334ZM6.66732 13.3334V31.6667H33.334V13.3334H6.66732ZM23.334 10V6.66671H16.6673V10H23.334Z" fill="#F8F8F8"/>
</svg>
